<svg width="52" height="43" fill="none" xmlns="http://www.w3.org/2000/svg"><path fill-rule="evenodd" clip-rule="evenodd" d="m26 .374 18.183.514a6.46 6.46 0 0 1 6.236 5.724 93.585 93.585 0 0 1 0 21.276 6.46 6.46 0 0 1-6.236 5.723l-15.059.426v5.088H38.5a1.875 1.875 0 0 1 0 3.75h-25a1.875 1.875 0 1 1 0-3.75h9.375v-5.088l-15.059-.426a6.46 6.46 0 0 1-6.236-5.723 93.584 93.584 0 0 1 0-21.276A6.46 6.46 0 0 1 7.815.888L26 .374Zm-17.5 25a1.875 1.875 0 0 0 0 3.75h35a1.875 1.875 0 0 0 0-3.75h-35Z" fill="#fff"/></svg>