<svg width="49" height="44" fill="none" xmlns="http://www.w3.org/2000/svg"><path fill-rule="evenodd" clip-rule="evenodd" d="m48.526 17.428.006 9.057a60.947 60.947 0 0 1-.246 2.585c-.168 1.439-1.338 2.6-2.806 2.763-4.6.514-9.36.514-13.958 0-1.469-.164-2.638-1.324-2.807-2.763a60.865 60.865 0 0 1 0-14.14c.169-1.439 1.338-2.6 2.806-2.763 4.6-.514 9.36-.514 13.959 0 1.468.164 2.638 1.324 2.806 2.763.097.831.177 1.664.24 2.498Zm-10.025.822a3.75 3.75 0 1 0 0 7.5 3.75 3.75 0 0 0 0-7.5Z" fill="#fff"/><path d="M47.01 7.1c.388.673-.341 1.426-1.114 1.34a67.112 67.112 0 0 0-14.791 0c-3.173.355-5.74 2.854-6.114 6.054a64.62 64.62 0 0 0 0 15.012c.374 3.2 2.94 5.7 6.114 6.054 4.876.545 9.915.545 14.791 0 .778-.087 1.514.672 1.121 1.35a12.428 12.428 0 0 1-9.45 6.124l-1.629.171c-8.277.871-16.626.814-24.89-.171l-1.08-.129a9.828 9.828 0 0 1-8.579-8.459 94.102 94.102 0 0 1 0-24.892 9.828 9.828 0 0 1 8.579-8.459l1.08-.129a111.625 111.625 0 0 1 24.89-.17l1.63.17c4.036.425 7.5 2.772 9.442 6.133Z" fill="#fff"/></svg>