<svg width="30" height="30" fill="none" xmlns="http://www.w3.org/2000/svg"><path fill-rule="evenodd" clip-rule="evenodd" d="M18.118 4.063h-7.494a.938.938 0 1 0 0 1.875h.325v6.326c-5.564 2.63-6.368 10.3-1.367 14.01l.369.274a8.475 8.475 0 0 0 10.097 0l.369-.274c5.001-3.71 4.197-11.38-1.367-14.01V5.938h.325a.938.938 0 0 0 0-1.875h-1.257ZM9.87 15.313h10.257a6.338 6.338 0 0 0-2.094-1.45 1.422 1.422 0 0 1-.86-1.307V5.938h-4.35v6.618c0 .568-.338 1.081-.859 1.306-.83.358-1.53.857-2.094 1.45Zm2.628 5.937a1.25 1.25 0 1 0 0 2.5 1.25 1.25 0 0 0 0-2.5ZM15 20a1.25 1.25 0 1 1 2.5 0 1.25 1.25 0 0 1-2.5 0Z" fill="#fff"/></svg>