<svg width="30" height="30" fill="none" xmlns="http://www.w3.org/2000/svg"><path fill-rule="evenodd" clip-rule="evenodd" d="M23.125 14.063a3.369 3.369 0 0 0-3.295 2.668l-.027.13c-.085.4-.1.811-.045 1.216l.192 1.391-.215.027a2.207 2.207 0 0 0-1.922 2.188v2.884c0 1.109.823 2.045 1.922 2.188 2.251.292 4.53.292 6.78 0a2.207 2.207 0 0 0 1.923-2.188v-2.884a2.207 2.207 0 0 0-1.923-2.188c-.071-.01-.142-.018-.214-.027l.191-1.39c.056-.406.041-.817-.044-1.217l-.028-.13a3.369 3.369 0 0 0-3.295-2.669Zm1.305 5.245.205-1.486c.026-.19.019-.383-.02-.57l-.029-.131a1.494 1.494 0 0 0-2.921 0l-.028.13c-.04.188-.047.38-.021.57l.204 1.487c.87-.043 1.741-.043 2.61 0Z" fill="#fff"/><path d="M25.865 12.476c.032.21-.2.362-.39.267a5.243 5.243 0 0 0-7.478 3.599l-.028.13a5.411 5.411 0 0 0-.11 1.415c.01.194-.082.38-.238.494a4.08 4.08 0 0 0-1.683 3.302v1.774a.374.374 0 0 1-.371.374 90.302 90.302 0 0 1-7.006-.228l-1.893-.136a2.66 2.66 0 0 1-2.427-2.175 29.663 29.663 0 0 1-.272-8.869l.341-2.836a2.724 2.724 0 0 1 2.705-2.4h2.864a2.246 2.246 0 0 1 2.246 2.246c0 .041.034.075.075.075h10.89c1.326 0 2.456.963 2.665 2.272l.08.502.03.194Z" fill="#fff"/></svg>